<svg width="1920" height="1080" viewBox="0 0 1920 1080" xmlns="http://www.w3.org/2000/svg"><rect width="1920" height="1080" fill="#0e417e"/><path d="M 0,1080 C 0,1080 0,270 0,270 C 95.6307692307692,232.2923076923077 191.2615384615384,194.58461538461538 307,204 C 422.7384615384616,213.41538461538462 558.5846153846154,269.9538461538462 657,271 C 755.4153846153846,272.0461538461538 816.4000000000001,217.59999999999997 930,223 C 1043.6,228.40000000000003 1209.8153846153848,293.6461538461539 1336,293 C 1462.1846153846152,292.3538461538461 1548.3384615384614,225.81538461538463 1639,211 C 1729.6615384615386,196.18461538461537 1824.8307692307694,233.09230769230768 1920,270 C 1920,270 1920,1080 1920,1080 Z" fill="#0e6bd7" opacity="0.15"/><path d="M 0,1080 C 0,1080 0,540 0,540 C 102.45641025641024,557.074358974359 204.91282051282047,574.148717948718 314,571 C 423.0871794871795,567.851282051282 538.8051282051282,544.4794871794871 646,535 C 753.1948717948718,525.5205128205129 851.8666666666668,529.9333333333334 966,508 C 1080.1333333333332,486.06666666666666 1209.728205128205,437.7871794871795 1306,470 C 1402.271794871795,502.2128205128205 1465.2205128205128,614.9179487179487 1562,640 C 1658.7794871794872,665.0820512820513 1789.3897435897436,602.5410256410257 1920,540 C 1920,540 1920,1080 1920,1080 Z" fill="#0e6bd7" opacity="0.3"/><path d="M 0,1080 C 0,1080 0,810 0,810 C 106.39743589743588,747.5102564102564 212.79487179487177,685.0205128205127 320,717 C 427.20512820512823,748.9794871794873 535.2179487179487,875.4282051282053 639,890 C 742.7820512820513,904.5717948717947 842.3333333333335,807.2666666666667 939,792 C 1035.6666666666665,776.7333333333333 1129.448717948718,843.5051282051284 1229,856 C 1328.551282051282,868.4948717948716 1433.871794871795,826.7128205128204 1550,810 C 1666.128205128205,793.2871794871796 1793.0641025641025,801.6435897435898 1920,810 C 1920,810 1920,1080 1920,1080 Z" fill="#0e6bd7" opacity="0.44999999999999996"/></svg>